<?xml version="1.0"?>
<svg xmlns="http://www.w3.org/2000/svg" xmlns:xlink="http://www.w3.org/1999/xlink" version="1.1" id="Capa_1" x="0px" y="0px" viewBox="0 0 512 512" style="enable-background:new 0 0 512 512;" xml:space="preserve" width="512px" height="512px" class=""><g><g>
	<circle cx="215.833" cy="215.833" r="15" data-original="#000000" class="active-path" data-old_color="#444444" fill="#AAAAAA"/>
	<circle cx="408.633" cy="215.833" r="15" data-original="#000000" class="active-path" data-old_color="#444444" fill="#AAAAAA"/>
	<path d="M256,0C136.947,0,40.167,96.66,40.167,215.833v241c0,30.419,24.748,55.167,55.167,55.167   c30.419,0,55.167-24.748,55.167-55.167c0-13.877,11.29-25.167,25.167-25.167s25.167,11.29,25.167,25.167   C200.833,487.252,225.581,512,256,512s55.167-24.748,55.167-55.167c0-13.877,11.29-25.167,25.167-25.167   s25.167,11.29,25.167,25.167c0,30.419,24.748,55.167,55.167,55.167c30.419,0,55.167-24.748,55.167-55.167v-241   C471.833,96.783,375.175,0,256,0z M441.833,215.833c0,31.595-25.705,57.3-57.3,57.3c-31.595,0-57.3-25.705-57.3-57.3   c0-31.596,25.705-57.3,57.3-57.3C416.129,158.533,441.833,184.238,441.833,215.833z M416.667,482   c-13.877,0-25.167-11.29-25.167-25.167c0-30.419-24.748-55.167-55.167-55.167c-30.419,0-55.167,24.748-55.167,55.167   C281.167,470.71,269.877,482,256,482s-25.167-11.29-25.167-25.167c0-30.419-24.748-55.167-55.167-55.167   c-30.419,0-55.167,24.748-55.167,55.167C120.5,470.71,109.21,482,95.333,482s-25.167-11.29-25.167-25.167v-241   C70.167,113.869,152.779,30,256,30c39.644,0,127.274,17.318,168.953,108.473c-12.093-6.344-25.843-9.94-40.42-9.94   c-48.137,0-87.3,39.163-87.3,87.3c0,48.137,39.163,87.3,87.3,87.3c21.908,0,41.956-8.114,57.3-21.492v175.192   C441.833,470.71,430.543,482,416.667,482z" data-original="#000000" class="active-path" data-old_color="#444444" fill="#AAAAAA"/>
	<path d="M191.733,128.533c-48.138,0-87.3,39.163-87.3,87.3c0,48.137,39.163,87.3,87.3,87.3c48.137,0,87.3-39.163,87.3-87.3   C279.033,167.696,239.871,128.533,191.733,128.533z M191.733,273.133c-31.596,0-57.3-25.705-57.3-57.3   c0-31.596,25.705-57.3,57.3-57.3c31.595,0,57.3,25.705,57.3,57.3C249.033,247.429,223.329,273.133,191.733,273.133z" data-original="#000000" class="active-path" data-old_color="#444444" fill="#AAAAAA"/>
</g></g> </svg>
