<?xml version="1.0"?>
<svg xmlns="http://www.w3.org/2000/svg" xmlns:xlink="http://www.w3.org/1999/xlink" version="1.1" id="Capa_1" x="0px" y="0px" viewBox="0 0 512.001 512.001" style="enable-background:new 0 0 512.001 512.001;" xml:space="preserve" width="512px" height="512px"><g><g>
	<g>
		<path d="M447.686,421.941L281.745,256L447.686,90.059c4.164-4.165,4.164-10.917,0-15.083C399.68,26.972,334.571,0.003,266.681,0    C125.296-0.005,10.677,114.606,10.672,255.991C10.667,397.376,125.278,511.995,266.662,512    c67.933,0.188,133.118-26.81,181.024-74.976C451.851,432.859,451.851,426.107,447.686,421.941z M266.695,490.667    c-129.603,0.009-234.674-105.048-234.683-234.65C32.003,126.413,137.06,21.342,266.662,21.333v0    c58.581-0.167,115.075,21.739,158.229,61.355L259.121,248.459c-4.164,4.165-4.164,10.917,0,15.083l165.771,165.771    C381.658,468.779,325.234,490.663,266.695,490.667z" data-original="#000000" class="active-path" data-old_color="#000000" fill="#AAAAAA"/>
	</g>
</g><g>
	<g>
		<path d="M245.329,74.667c-23.564,0-42.667,19.102-42.667,42.667S221.765,160,245.329,160s42.667-19.103,42.667-42.667    S268.893,74.667,245.329,74.667z M245.329,138.667c-11.782,0-21.333-9.551-21.333-21.333c0-11.782,9.551-21.333,21.333-21.333    c11.782,0,21.333,9.551,21.333,21.333C266.662,129.115,257.111,138.667,245.329,138.667z" data-original="#000000" class="active-path" data-old_color="#000000" fill="#AAAAAA"/>
	</g>
</g><g>
	<g>
		<path d="M469.329,224c-17.673,0-32,14.327-32,32s14.327,32,32,32s32-14.327,32-32S487.002,224,469.329,224z M469.329,266.667    c-5.891,0-10.667-4.776-10.667-10.667s4.776-10.667,10.667-10.667c5.891,0,10.667,4.776,10.667,10.667    S475.22,266.667,469.329,266.667z" data-original="#000000" class="active-path" data-old_color="#000000" fill="#AAAAAA"/>
	</g>
</g><g>
	<g>
		<path d="M383.996,224c-17.673,0-32,14.327-32,32s14.327,32,32,32s32-14.327,32-32S401.669,224,383.996,224z M383.996,266.667    c-5.891,0-10.667-4.776-10.667-10.667s4.776-10.667,10.667-10.667c5.891,0,10.667,4.776,10.667,10.667    S389.887,266.667,383.996,266.667z" data-original="#000000" class="active-path" data-old_color="#000000" fill="#AAAAAA"/>
	</g>
</g></g> </svg>
